<?xml version="1.0" standalone="no"?>
<!DOCTYPE svg PUBLIC "-//W3C//DTD SVG 20010904//EN"
 "http://www.w3.org/TR/2001/REC-SVG-20010904/DTD/svg10.dtd">
<svg version="1.0" xmlns="http://www.w3.org/2000/svg"
 width="260.000000pt" height="260.000000pt" viewBox="0 0 260.000000 260.000000"
 preserveAspectRatio="xMidYMid meet">
<metadata>
Created by potrace 1.11, written by Peter Selinger 2001-2013
</metadata>
<g transform="translate(0.000000,260.000000) scale(0.100000,-0.100000)"
fill="#000000" stroke="none">
<path d="M0 1300 l0 -1300 1300 0 1300 0 0 1300 0 1300 -1300 0 -1300 0 0
-1300z m964 675 c47 -14 93 -25 101 -25 8 0 17 11 21 25 3 14 12 25 20 25 8 0
15 -1 15 -2 1 -2 6 -65 13 -140 10 -126 10 -138 -5 -138 -10 0 -23 17 -33 44
-25 64 -86 129 -148 156 -44 19 -65 22 -134 18 -70 -4 -90 -9 -131 -34 -96
-60 -153 -170 -161 -314 -5 -106 9 -180 54 -269 59 -119 146 -175 269 -176 45
0 87 7 118 18 l47 19 0 168 c0 186 -1 188 -68 199 -24 4 -38 12 -40 24 -3 16
9 17 170 15 144 -3 173 -5 173 -18 0 -8 -14 -17 -33 -21 -19 -4 -39 -12 -45
-18 -8 -8 -13 -73 -15 -191 l-4 -178 -58 -25 c-87 -38 -166 -50 -283 -44 -121
6 -200 31 -272 85 -173 131 -223 368 -121 571 34 67 124 161 184 194 112 61
230 71 366 32z m1216 -85 c0 -49 1 -93 2 -97 1 -5 -5 -9 -13 -11 -8 -1 -24 18
-39 50 -37 77 -63 88 -222 88 l-128 0 0 -165 0 -165 78 0 c127 0 164 18 177
88 3 18 12 32 20 32 13 0 15 -25 15 -150 0 -120 -3 -150 -14 -150 -8 0 -16 16
-20 39 -10 66 -40 81 -157 81 l-99 0 0 -157 c0 -87 3 -168 6 -181 8 -27 52
-52 94 -52 20 0 30 -5 30 -15 0 -13 -28 -15 -190 -15 -154 0 -190 3 -190 14 0
8 16 15 41 19 76 10 74 -4 77 380 2 188 0 352 -3 364 -8 35 -34 53 -76 53 -32
0 -39 3 -39 20 0 20 7 20 325 20 l325 0 0 -90z m283 -1300 c21 0 23 -36 2 -44
-9 -3 -537 -4 -1175 -3 -836 1 -1162 5 -1170 13 -8 8 -8 15 3 25 11 12 195 14
1168 12 635 -2 1162 -3 1172 -3z"/>
</g>
</svg>
